<mxfile host="app.diagrams.net" agent="Mozilla/5.0 (Windows NT 10.0; Win64; x64) AppleWebKit/537.36 (KHTML, like Gecko) Chrome/136.0.0.0 Safari/537.36 Edg/136.0.0.0" version="26.3.0">
  <diagram id="C5RBs43oDa-KdzZeNtuy" name="Page-1">
    <mxGraphModel dx="2043" dy="1146" grid="1" gridSize="10" guides="1" tooltips="1" connect="1" arrows="1" fold="1" page="1" pageScale="1" pageWidth="827" pageHeight="1169" math="0" shadow="0">
      <root>
        <mxCell id="WIyWlLk6GJQsqaUBKTNV-0" />
        <mxCell id="WIyWlLk6GJQsqaUBKTNV-1" parent="WIyWlLk6GJQsqaUBKTNV-0" />
        <mxCell id="WIyWlLk6GJQsqaUBKTNV-3" value="Competitor Price Brackets" style="rounded=1;whiteSpace=wrap;html=1;fontSize=12;glass=0;strokeWidth=1;shadow=0;" parent="WIyWlLk6GJQsqaUBKTNV-1" vertex="1">
          <mxGeometry x="150" y="180" width="250" height="70" as="geometry" />
        </mxCell>
        <mxCell id="m3VWZIOZYbblff4mF7no-3" value="" style="edgeStyle=orthogonalEdgeStyle;rounded=0;orthogonalLoop=1;jettySize=auto;html=1;" edge="1" parent="WIyWlLk6GJQsqaUBKTNV-1" source="m3VWZIOZYbblff4mF7no-0">
          <mxGeometry relative="1" as="geometry">
            <mxPoint x="140" y="210" as="targetPoint" />
          </mxGeometry>
        </mxCell>
        <mxCell id="m3VWZIOZYbblff4mF7no-0" value="idnapdnapub&lt;br&gt;dbo.pea_competitors_price_brackets_per_item_v" style="shape=cylinder3;whiteSpace=wrap;html=1;boundedLbl=1;backgroundOutline=1;size=15;" vertex="1" parent="WIyWlLk6GJQsqaUBKTNV-1">
          <mxGeometry x="-520" y="150" width="340" height="120" as="geometry" />
        </mxCell>
        <mxCell id="m3VWZIOZYbblff4mF7no-5" value="" style="edgeStyle=orthogonalEdgeStyle;rounded=0;orthogonalLoop=1;jettySize=auto;html=1;" edge="1" parent="WIyWlLk6GJQsqaUBKTNV-1" source="m3VWZIOZYbblff4mF7no-1">
          <mxGeometry relative="1" as="geometry">
            <mxPoint x="140" y="230" as="targetPoint" />
            <Array as="points">
              <mxPoint x="40" y="370" />
              <mxPoint x="40" y="230" />
            </Array>
          </mxGeometry>
        </mxCell>
        <mxCell id="m3VWZIOZYbblff4mF7no-1" value="idnapdnapub&lt;div&gt;&lt;span style=&quot;color: rgb(41, 42, 46); font-family: &amp;quot;Atlassian Sans&amp;quot;, ui-sans-serif, -apple-system, BlinkMacSystemFont, &amp;quot;Segoe UI&amp;quot;, Ubuntu, &amp;quot;Helvetica Neue&amp;quot;, sans-serif; font-size: 16px; text-align: start; white-space-collapse: preserve; background-color: rgb(255, 255, 255);&quot;&gt;CD_STORE_DIM_V&lt;/span&gt;&lt;/div&gt;" style="shape=cylinder3;whiteSpace=wrap;html=1;boundedLbl=1;backgroundOutline=1;size=15;" vertex="1" parent="WIyWlLk6GJQsqaUBKTNV-1">
          <mxGeometry x="-520" y="310" width="340" height="120" as="geometry" />
        </mxCell>
        <mxCell id="m3VWZIOZYbblff4mF7no-9" value="&lt;h1 style=&quot;margin-top: 0px;&quot;&gt;IDNAP&lt;/h1&gt;&lt;p&gt;Databricks / Azure Synaps&lt;/p&gt;" style="text;html=1;whiteSpace=wrap;overflow=hidden;rounded=0;" vertex="1" parent="WIyWlLk6GJQsqaUBKTNV-1">
          <mxGeometry x="-460" y="10" width="340" height="120" as="geometry" />
        </mxCell>
        <mxCell id="m3VWZIOZYbblff4mF7no-10" value="&lt;h1 style=&quot;margin-top: 0px;&quot;&gt;PowerBI report&amp;nbsp;&lt;/h1&gt;&lt;p&gt;&lt;br&gt;&lt;/p&gt;" style="text;html=1;whiteSpace=wrap;overflow=hidden;rounded=0;" vertex="1" parent="WIyWlLk6GJQsqaUBKTNV-1">
          <mxGeometry x="74" y="10" width="340" height="120" as="geometry" />
        </mxCell>
      </root>
    </mxGraphModel>
  </diagram>
</mxfile>
